<svg id="Layer_1" data-name="Layer 1" xmlns="http://www.w3.org/2000/svg" viewBox="0 0 79.44 79.44"><defs><style>.cls-1{fill:#5f843a;}.cls-2{fill:#fff;}</style></defs><title>Standardly_small</title><circle class="cls-1" cx="39.72" cy="39.72" r="39.72"/><circle class="cls-2" cx="35.31" cy="24.28" r="2.21"/><circle class="cls-2" cx="39.72" cy="28.69" r="2.21"/><circle class="cls-2" cx="52.96" cy="41.93" r="2.21"/><circle class="cls-2" cx="44.13" cy="33.1" r="2.21"/><circle class="cls-2" cx="48.55" cy="37.52" r="2.21"/><circle class="cls-2" cx="57.37" cy="46.35" r="2.21"/><circle class="cls-2" cx="57.37" cy="50.76" r="2.21"/><circle class="cls-2" cx="57.37" cy="55.17" r="2.21"/><circle class="cls-2" cx="52.96" cy="59.59" r="2.21"/><circle class="cls-2" cx="22.07" cy="55.17" r="2.21"/><circle class="cls-2" cx="22.07" cy="50.76" r="2.21"/><circle class="cls-2" cx="26.48" cy="59.59" r="2.21"/><circle class="cls-2" cx="48.55" cy="64" r="2.21"/><circle class="cls-2" cx="44.13" cy="64" r="2.21"/><circle class="cls-2" cx="39.72" cy="64" r="2.21"/><circle class="cls-2" cx="35.31" cy="64" r="2.21"/><circle class="cls-2" cx="30.89" cy="64" r="2.21"/><circle class="cls-2" cx="35.31" cy="28.69" r="2.21"/><circle class="cls-2" cx="35.31" cy="33.1" r="2.21"/><circle class="cls-2" cx="39.72" cy="24.28" r="2.21"/><circle class="cls-2" cx="44.13" cy="24.28" r="2.21"/><circle class="cls-2" cx="44.13" cy="55.17" r="2.21"/><circle class="cls-2" cx="39.72" cy="50.76" r="2.21"/><circle class="cls-2" cx="26.48" cy="37.52" r="2.21"/><circle class="cls-2" cx="35.31" cy="46.35" r="2.21"/><circle class="cls-2" cx="30.89" cy="41.93" r="2.21"/><circle class="cls-2" cx="22.07" cy="33.1" r="2.21"/><circle class="cls-2" cx="22.07" cy="28.69" r="2.21"/><circle class="cls-2" cx="22.07" cy="24.28" r="2.21"/><circle class="cls-2" cx="26.48" cy="19.86" r="2.21"/><circle class="cls-2" cx="52.96" cy="19.86" r="2.21"/><circle class="cls-2" cx="57.37" cy="24.28" r="2.21"/><circle class="cls-2" cx="57.37" cy="28.69" r="2.21"/><circle class="cls-2" cx="30.89" cy="15.45" r="2.21"/><circle class="cls-2" cx="35.31" cy="15.45" r="2.21"/><circle class="cls-2" cx="39.72" cy="15.45" r="2.21"/><circle class="cls-2" cx="44.13" cy="15.45" r="2.21"/><circle class="cls-2" cx="48.55" cy="15.45" r="2.21"/><circle class="cls-2" cx="44.13" cy="50.76" r="2.21"/><circle class="cls-2" cx="44.13" cy="46.35" r="2.21"/><circle class="cls-2" cx="39.72" cy="55.17" r="2.21"/><circle class="cls-2" cx="35.31" cy="55.17" r="2.21"/></svg>